<?xml version="1.0" encoding="utf-8"?>
<!-- Generator: Adobe Illustrator 21.0.0, SVG Export Plug-In . SVG Version: 6.00 Build 0)  -->
<svg version="1.1" id="Layer_1" xmlns="http://www.w3.org/2000/svg" xmlns:xlink="http://www.w3.org/1999/xlink" x="0px" y="0px"
	 viewBox="0 0 800 457" style="enable-background:new 0 0 800 457;" xml:space="preserve">
<style type="text/css">
	.st0{fill:#FCB331;}
	.st1{fill:#ED1C2E;}
	.st2{fill:#FFFFFF;}
	.st3{fill:none;stroke:#FFFFFF;stroke-width:0.2945;stroke-miterlimit:2.6131;}
</style>
<g>
	<polygon class="st0" points="550.1,453.6 561.7,453.3 573.2,452.4 584.4,451 595.5,449 606.3,446.5 617,443.5 627.4,439.9 
		637.7,435.9 647.7,431.4 657.3,426.5 666.7,421 675.9,415.2 684.7,408.9 693.2,402.2 701.3,395.2 709.1,387.7 716.6,379.9 
		723.7,371.7 730.3,363.2 736.6,354.5 742.4,345.3 747.9,335.9 752.8,326.2 757.4,316.2 761.4,306 764.9,295.5 768,284.9 770.5,274 
		772.4,262.9 773.9,251.7 774.7,240.3 775,228.7 774.7,217.2 773.9,205.8 772.4,194.6 770.5,183.6 768,172.8 764.9,162.2 
		761.4,151.8 757.4,141.6 752.8,131.7 747.9,122 742.4,112.7 736.6,103.5 730.3,94.8 723.7,86.4 716.6,78.2 709.1,70.4 701.3,63 
		693.2,55.9 684.7,49.3 675.9,43 666.7,37.1 657.3,31.8 647.7,26.8 637.7,22.3 627.4,18.3 617,14.7 606.3,11.7 595.5,9.2 584.4,7.2 
		573.2,5.8 561.7,5 550.1,4.7 538.6,5 527.2,5.8 516,7.2 504.9,9.2 494.1,11.7 483.4,14.7 473.1,18.3 462.8,22.3 452.9,26.8 
		443.3,31.8 433.9,37.1 424.8,43 416.1,49.3 407.6,55.9 399.5,63 391.7,70.4 384.3,78.2 377.2,86.4 370.5,94.8 364.3,103.5 
		358.5,112.7 353.1,122 348.1,131.7 343.7,141.6 339.7,151.8 336.2,162.2 333.1,172.8 330.6,183.6 328.7,194.6 327.2,205.8 
		326.4,217.2 326.1,228.7 326.4,240.3 327.2,251.7 328.7,262.9 330.6,274 333.1,284.9 336.2,295.5 339.7,306 343.7,316.2 
		348.1,326.2 353.1,335.9 358.5,345.3 364.3,354.5 370.5,363.2 377.2,371.7 384.3,379.9 391.7,387.7 399.5,395.2 407.6,402.2 
		416.1,408.9 424.8,415.2 433.9,421 443.3,426.5 452.9,431.4 462.8,435.9 473.1,439.9 483.4,443.5 494.1,446.5 504.9,449 516,451 
		527.2,452.4 538.6,453.3 550.1,453.6 	"/>
	<polygon class="st1" points="249.9,453.6 261.4,453.3 272.8,452.4 284,451 295.1,449 305.9,446.5 316.6,443.5 326.9,439.9 
		337.2,435.9 347.1,431.4 356.7,426.5 366.1,421 375.2,415.2 383.9,408.9 392.4,402.2 400.5,395.2 408.3,387.7 415.8,379.9 
		422.8,371.7 429.5,363.2 435.7,354.5 441.5,345.3 446.9,335.9 451.9,326.2 456.3,316.2 460.3,306 463.8,295.5 466.9,284.9 
		469.4,274 471.3,262.9 472.8,251.7 473.6,240.3 473.9,228.7 473.6,217.2 472.8,205.8 471.3,194.6 469.4,183.6 466.9,172.8 
		463.8,162.2 460.3,151.8 456.3,141.6 451.9,131.7 446.9,122 441.5,112.7 435.7,103.5 429.5,94.8 422.8,86.4 415.8,78.2 408.3,70.4 
		400.5,63 392.4,55.9 383.9,49.3 375.2,43 366.1,37.1 356.7,31.8 347.1,26.8 337.2,22.3 326.9,18.3 316.6,14.7 305.9,11.7 
		295.1,9.2 284,7.2 272.8,5.8 261.4,5 249.9,4.7 238.3,5 226.8,5.8 215.6,7.2 204.5,9.2 193.7,11.7 183,14.7 172.6,18.3 162.3,22.3 
		152.3,26.8 142.7,31.8 133.3,37.1 124.1,43 115.3,49.3 106.8,55.9 98.7,63 90.9,70.4 83.4,78.2 76.3,86.4 69.7,94.8 63.4,103.5 
		57.6,112.7 52.1,122 47.2,131.7 42.6,141.6 38.6,151.8 35.1,162.2 32,172.8 29.5,183.6 27.6,194.6 26.1,205.8 25.3,217.2 25,228.7 
		25.3,240.3 26.1,251.7 27.6,262.9 29.5,274 32,284.9 35.1,295.5 38.6,306 42.6,316.2 47.2,326.2 52.1,335.9 57.6,345.3 63.4,354.5 
		69.7,363.2 76.3,371.7 83.4,379.9 90.9,387.7 98.7,395.2 106.8,402.2 115.3,408.9 124.1,415.2 133.3,421 142.7,426.5 152.3,431.4 
		162.3,435.9 172.6,439.9 183,443.5 193.7,446.5 204.5,449 215.6,451 226.8,452.4 238.3,453.3 249.9,453.6 	"/>
	<polygon class="st0" points="373.7,90.7 493,90.7 493,78.6 384,78.6 373.7,90.7 	"/>
	<polygon class="st0" points="355.9,117.9 493,117.9 493,105.7 363.1,105.7 355.9,117.9 	"/>
	<polygon class="st0" points="342.5,144.9 493,144.9 493,132.7 347.8,132.7 342.5,144.9 	"/>
	<polygon class="st0" points="333.4,172 493,172 493,159.8 337.2,159.8 333.4,172 	"/>
	<polygon class="st0" points="338.7,303 493.4,303 493.4,290.8 334.9,290.8 338.7,303 	"/>
	<polygon class="st0" points="350.1,330.1 493.4,330.1 493.4,317.9 344.4,317.9 350.1,330.1 	"/>
	<polygon class="st0" points="366.2,357.1 493.4,357.1 493.4,344.9 358.5,344.9 366.2,357.1 	"/>
	<polygon class="st0" points="388.3,384.2 493.4,384.2 493.4,371.9 377.6,371.9 388.3,384.2 	"/>
	<polygon class="st0" points="328,199 493,199 493,186.8 330.3,186.8 328,199 	"/>
	<polygon class="st0" points="428.5,275.9 491.5,275.9 491.5,263.7 430.8,263.7 428.5,275.9 	"/>
	<polygon class="st0" points="433.5,248.9 491.5,248.9 491.5,236.6 435.8,236.6 433.5,248.9 	"/>
	<polygon class="st0" points="323.8,236.6 340.2,236.6 340.2,248.9 324.6,248.9 323.8,236.6 	"/>
	<polygon class="st2" points="293.3,221.9 292.3,221.8 291.2,221.7 290.2,221.5 289.2,221.3 288.3,221.2 287.3,221 286.4,220.9 
		285.3,220.7 284.2,220.6 283,220.5 281.7,220.4 280.2,220.4 278.6,220.4 276.9,220.4 274.9,220.6 272.7,220.7 271.2,221 
		269.8,221.2 268.5,221.7 267.4,222.1 266.3,222.6 265.3,223.2 264.6,224 263.9,224.7 263.4,225.5 263,226.3 262.9,227.3 
		262.9,228.2 263.1,229.1 263.4,230.1 264,231.1 264.8,232.1 266.3,233.5 268.1,234.7 270.2,235.7 272.5,236.5 274.9,237.2 
		277.4,238.1 279.9,239 282.3,240 284.6,241.3 286.7,242.8 288.6,244.7 290.2,247.1 291.4,250 292.2,253.4 292.5,257.5 292.2,262.2 
		291.7,265.8 290.7,268.9 289.5,271.8 288,274.3 286.3,276.5 284.3,278.4 282.2,280 279.8,281.5 277.4,282.6 274.9,283.6 
		272.4,284.3 269.7,284.9 267.1,285.4 264.6,285.6 262.1,285.8 259.8,285.9 256.5,285.9 253.5,285.8 250.8,285.8 248.4,285.7 
		246.1,285.6 244,285.5 242.2,285.3 240.5,285.1 238.9,284.9 237.4,284.6 236,284.4 234.7,284 233.4,283.7 232.2,283.3 231,282.8 
		229.7,282.4 233.1,265.6 233.8,265.8 234.6,266 235.7,266.3 237,266.6 238.4,266.9 239.9,267.2 241.5,267.6 243.4,267.9 
		245.2,268.2 247.2,268.5 249.3,268.7 251.4,269 253.6,269 255.8,269.1 258,269.1 260.2,269 262.4,268.6 264.1,268 265.5,267.2 
		266.5,266.1 267.3,265 267.9,263.8 268.3,262.6 268.6,261.5 268.7,259.3 268,257.4 266.7,255.9 264.9,254.6 262.6,253.5 
		259.9,252.3 257,251.3 254,250 251,248.7 248.1,247.1 245.5,245.1 243.1,242.8 241.2,239.9 239.8,236.5 239.1,232.4 239.2,227.6 
		239.6,224.6 240.1,221.8 240.9,219.2 241.8,216.8 243,214.5 244.3,212.6 245.9,210.7 247.8,209 250,207.6 252.4,206.4 255.2,205.2 
		258.2,204.4 261.6,203.7 265.3,203.2 269.4,202.9 273.9,202.8 276.7,202.8 279.2,202.9 281.6,203 283.7,203 285.6,203.2 
		287.3,203.3 288.9,203.5 290.2,203.6 291.5,203.8 292.6,204 293.5,204.2 294.5,204.3 295.2,204.5 295.9,204.5 296.6,204.7 
		297.2,204.8 293.3,221.9 	"/>
	<polyline class="st3" points="293.3,221.9 293.3,221.9 292.3,221.8 291.2,221.7 290.2,221.5 289.2,221.3 288.3,221.2 287.3,221 
		286.4,220.9 285.3,220.7 284.2,220.6 283,220.5 281.7,220.4 280.2,220.4 278.6,220.4 276.9,220.4 274.9,220.6 272.7,220.7 
		272.7,220.7 271.2,221 269.8,221.2 268.5,221.7 267.4,222.1 266.3,222.6 265.3,223.2 264.6,224 263.9,224.7 263.4,225.5 263,226.3 
		262.9,227.3 262.9,228.2 263.1,229.1 263.4,230.1 264,231.1 264.8,232.1 264.8,232.1 266.3,233.5 268.1,234.7 270.2,235.7 
		272.5,236.5 274.9,237.2 277.4,238.1 279.9,239 282.3,240 284.6,241.3 286.7,242.8 288.6,244.7 290.2,247.1 291.4,250 292.2,253.4 
		292.5,257.5 292.2,262.2 292.2,262.2 291.7,265.8 290.7,268.9 289.5,271.8 288,274.3 286.3,276.5 284.3,278.4 282.2,280 
		279.8,281.5 277.4,282.6 274.9,283.6 272.4,284.3 269.7,284.9 267.1,285.4 264.6,285.6 262.1,285.8 259.8,285.9 259.8,285.9 
		256.5,285.9 253.5,285.8 250.8,285.8 248.4,285.7 246.1,285.6 244,285.5 242.2,285.3 240.5,285.1 238.9,284.9 237.4,284.6 
		236,284.4 234.7,284 233.4,283.7 232.2,283.3 231,282.8 229.7,282.4 233.1,265.6 233.1,265.6 233.8,265.8 234.6,266 235.7,266.3 
		237,266.6 238.4,266.9 239.9,267.2 241.5,267.6 243.4,267.9 245.2,268.2 247.2,268.5 249.3,268.7 251.4,269 253.6,269 255.8,269.1 
		258,269.1 260.2,269 260.2,269 262.4,268.6 264.1,268 265.5,267.2 266.5,266.1 267.3,265 267.9,263.8 268.3,262.6 268.6,261.5 
		268.6,261.5 268.7,259.3 268,257.4 266.7,255.9 264.9,254.6 262.6,253.5 259.9,252.3 257,251.3 254,250 251,248.7 248.1,247.1 
		245.5,245.1 243.1,242.8 241.2,239.9 239.8,236.5 239.1,232.4 239.2,227.6 239.2,227.6 239.6,224.6 240.1,221.8 240.9,219.2 
		241.8,216.8 243,214.5 244.3,212.6 245.9,210.7 247.8,209 250,207.6 252.4,206.4 255.2,205.2 258.2,204.4 261.6,203.7 265.3,203.2 
		269.4,202.9 273.9,202.8 273.9,202.8 276.7,202.8 279.2,202.9 281.6,203 283.7,203 285.6,203.2 287.3,203.3 288.9,203.5 
		290.2,203.6 291.5,203.8 292.6,204 293.5,204.2 294.5,204.3 295.2,204.5 295.9,204.5 296.6,204.7 297.2,204.8 293.3,221.9 	"/>
	<polygon class="st2" points="311.3,186.1 332.2,186.1 329.1,204.4 341.8,204.4 339.1,221.5 325.7,221.1 318.5,263.4 318.4,264.9 
		318.8,266.2 319.5,267.2 320.5,268 321.9,268.5 323.4,269 325,269.3 326.9,269.4 328.5,269.4 330,269.2 331.4,269 332.6,268.7 
		333.6,268.4 334.3,268.1 334.7,268 334.9,267.9 332.2,282 331.7,282.4 331.2,282.7 330.6,283 330.1,283.3 329.6,283.5 329,283.7 
		328.3,284 327.6,284.2 326.9,284.4 326.1,284.6 325.2,284.7 324.3,284.9 323.3,285 322.2,285.2 321,285.3 319.7,285.5 313.9,285.5 
		310.9,285.2 308.2,284.9 305.8,284.5 303.8,284 302,283.3 300.6,282.5 299.3,281.6 298.3,280.6 297.6,279.6 297,278.3 296.7,277 
		296.4,275.6 296.4,274 296.4,272.3 296.6,270.6 296.8,268.7 311.3,186.1 	"/>
	<polyline class="st3" points="311.3,186.1 332.2,186.1 329.1,204.4 341.8,204.4 339.1,221.5 325.7,221.1 318.5,263.4 318.5,263.4 
		318.4,264.9 318.8,266.2 319.5,267.2 320.5,268 321.9,268.5 323.4,269 325,269.3 326.9,269.4 326.9,269.4 328.5,269.4 330,269.2 
		331.4,269 332.6,268.7 333.6,268.4 334.3,268.1 334.7,268 334.9,267.9 332.2,282 332.2,282 331.7,282.4 331.2,282.7 330.6,283 
		330.1,283.3 329.6,283.5 329,283.7 328.3,284 327.6,284.2 326.9,284.4 326.1,284.6 325.2,284.7 324.3,284.9 323.3,285 322.2,285.2 
		321,285.3 319.7,285.5 313.9,285.5 313.9,285.5 310.9,285.2 308.2,284.9 305.8,284.5 303.8,284 302,283.3 300.6,282.5 299.3,281.6 
		298.3,280.6 297.6,279.6 297,278.3 296.7,277 296.4,275.6 296.4,274 296.4,272.3 296.6,270.6 296.8,268.7 311.3,186.1 	"/>
	<polygon class="st2" points="358.5,250 358.3,251.3 358.2,252.7 358.4,254.1 358.7,255.6 359.2,257 359.8,258.4 360.6,259.8 
		361.5,261.1 362.6,262.4 363.7,263.5 364.9,264.7 366.3,265.6 367.7,266.4 369.2,267.1 370.7,267.6 372.2,267.9 374.2,268.2 
		376.1,268.4 378,268.7 380,268.8 382,268.9 384,268.9 386,268.8 388,268.7 390.1,268.4 392.1,268 394.2,267.5 396.3,266.9 
		398.4,266 400.6,265.1 402.7,263.9 404.9,262.6 401.9,281.2 400.7,281.8 399.5,282.4 398.3,282.9 397.1,283.4 396,283.7 
		394.8,284.1 393.6,284.4 392.3,284.6 390.9,284.9 389.4,285 387.8,285.2 386.1,285.3 384.1,285.4 382.1,285.4 379.7,285.5 
		377.2,285.5 373.5,285.4 369.7,285 365.9,284.5 362.1,283.6 358.4,282.4 354.9,281 351.5,279.1 348.3,276.9 345.3,274.3 
		342.8,271.2 340.6,267.8 338.7,263.7 337.5,259.3 336.6,254.2 336.4,248.6 336.8,242.4 337.1,240 337.5,237.2 338.1,234.2 339,231 
		340.1,227.8 341.5,224.5 343.2,221.2 345.3,218 347.8,215 350.7,212.1 354,209.5 357.8,207.3 362.2,205.4 367.1,204 372.6,203.1 
		378.7,202.8 381.7,202.9 384.8,203.2 387.9,203.7 391,204.5 394,205.6 397,207 399.7,208.8 402.2,210.9 404.5,213.5 406.4,216.5 
		407.9,220 408.9,224 409.5,228.5 409.6,233.7 409.1,239.4 407.9,245.8 407.6,250.4 352.4,250.4 355.9,235.5 389,235.5 389.2,233.6 
		389.1,231.8 388.9,230.1 388.6,228.6 388.1,227.2 387.6,225.9 386.8,224.8 386.1,223.7 385.2,222.8 384.2,222 383,221.3 
		381.9,220.7 380.7,220.3 379.5,220 378.2,219.8 376.8,219.6 375.4,219.7 374,219.9 372.7,220.2 371.5,220.7 370.2,221.3 369,222 
		367.9,222.8 366.9,223.7 365.9,224.8 365,225.9 364.2,227.1 363.5,228.4 362.8,229.8 362.3,231.3 361.8,232.8 361.5,234.4 
		358.5,250 	"/>
	<polyline class="st3" points="358.5,250 358.5,250 358.3,251.3 358.2,252.7 358.4,254.1 358.7,255.6 359.2,257 359.8,258.4 
		360.6,259.8 361.5,261.1 362.6,262.4 363.7,263.5 364.9,264.7 366.3,265.6 367.7,266.4 369.2,267.1 370.7,267.6 372.2,267.9 
		372.2,267.9 374.2,268.2 376.1,268.4 378,268.7 380,268.8 382,268.9 384,268.9 386,268.8 388,268.7 390.1,268.4 392.1,268 
		394.2,267.5 396.3,266.9 398.4,266 400.6,265.1 402.7,263.9 404.9,262.6 401.9,281.2 401.9,281.2 400.7,281.8 399.5,282.4 
		398.3,282.9 397.1,283.4 396,283.7 394.8,284.1 393.6,284.4 392.3,284.6 390.9,284.9 389.4,285 387.8,285.2 386.1,285.3 
		384.1,285.4 382.1,285.4 379.7,285.5 377.2,285.5 377.2,285.5 373.5,285.4 369.7,285 365.9,284.5 362.1,283.6 358.4,282.4 
		354.9,281 351.5,279.1 348.3,276.9 345.3,274.3 342.8,271.2 340.6,267.8 338.7,263.7 337.5,259.3 336.6,254.2 336.4,248.6 
		336.8,242.4 336.8,242.4 337.1,240 337.5,237.2 338.1,234.2 339,231 340.1,227.8 341.5,224.5 343.2,221.2 345.3,218 347.8,215 
		350.7,212.1 354,209.5 357.8,207.3 362.2,205.4 367.1,204 372.6,203.1 378.7,202.8 378.7,202.8 381.7,202.9 384.8,203.2 
		387.9,203.7 391,204.5 394,205.6 397,207 399.7,208.8 402.2,210.9 404.5,213.5 406.4,216.5 407.9,220 408.9,224 409.5,228.5 
		409.6,233.7 409.1,239.4 407.9,245.8 407.6,250.4 352.4,250.4 355.9,235.5 389,235.5 389,235.5 389.2,233.6 389.1,231.8 
		388.9,230.1 388.6,228.6 388.1,227.2 387.6,225.9 386.8,224.8 386.1,223.7 385.2,222.8 384.2,222 383,221.3 381.9,220.7 
		380.7,220.3 379.5,220 378.2,219.8 376.8,219.6 376.8,219.6 375.4,219.7 374,219.9 372.7,220.2 371.5,220.7 370.2,221.3 369,222 
		367.9,222.8 366.9,223.7 365.9,224.8 365,225.9 364.2,227.1 363.5,228.4 362.8,229.8 362.3,231.3 361.8,232.8 361.5,234.4 
		358.5,250 	"/>
	<polygon class="st2" points="539.1,208.9 538.1,208.4 537.1,207.9 536.1,207.4 534.9,206.9 533.8,206.4 532.5,206 531.2,205.5 
		529.8,205.1 528.4,204.7 527,204.4 525.4,204.1 523.8,203.9 522,203.7 520.3,203.6 518.5,203.6 516.6,203.6 514.7,203.6 
		512.7,203.7 510.7,203.9 508.6,204.3 506.5,204.9 504.3,205.8 502.2,206.8 500.1,208.2 498,209.8 496.1,211.8 494.2,214.2 
		492.4,217 490.7,220.4 489.1,224.2 487.7,228.4 486.5,233.2 486,236 485.7,238.6 485.6,241.3 485.6,243.8 485.9,246.4 486.4,248.8 
		487.1,251.1 487.9,253.4 489,255.4 490.4,257.4 492,259.1 493.8,260.7 495.9,262.1 498.2,263.2 500.8,264.2 503.7,264.9 
		504.6,265.1 505.8,265.3 507.1,265.5 508.6,265.6 510.3,265.8 512.1,265.8 513.9,265.8 515.8,265.6 517.8,265.4 519.8,265 
		521.7,264.5 523.6,263.9 525.5,263.1 527.2,262.1 528.8,260.9 530.3,259.5 526.9,279.7 526.4,280.1 526,280.6 525.4,281.1 
		524.7,281.5 523.9,282.1 522.8,282.7 521.6,283.2 520.2,283.7 518.5,284.2 516.5,284.6 514.2,284.9 511.6,285.2 508.6,285.3 
		505.2,285.4 501.4,285.3 497.1,285.1 493.7,284.7 490.2,284 486.7,282.8 483.2,281.3 479.9,279.5 476.7,277.2 473.7,274.6 
		470.9,271.5 468.4,268.1 466.2,264.4 464.4,260.1 463.1,255.5 462.2,250.4 461.9,245 462,239.1 462.8,232.9 463.4,229.8 
		464.1,226.7 464.9,223.8 465.6,221 466.5,218.3 467.5,215.7 468.4,213.2 469.5,210.8 470.6,208.5 471.8,206.3 473.1,204.2 
		474.4,202.2 475.8,200.3 477.3,198.5 478.8,196.8 480.4,195.2 482.1,193.7 483.9,192.3 485.7,191 487.6,189.8 489.6,188.6 
		491.7,187.7 493.8,186.8 496,185.9 498.4,185.2 500.7,184.6 503.1,184 505.7,183.6 508.3,183.2 511,182.9 513.7,182.7 516.6,182.7 
		519,182.7 521.4,182.9 523.6,183.1 525.9,183.4 528,183.7 530.1,184.2 532,184.6 533.9,185 535.6,185.5 537.1,185.9 538.6,186.4 
		539.8,186.8 540.8,187.2 541.7,187.5 542.4,187.8 542.9,188 539.1,208.9 	"/>
	<polyline class="st3" points="539.1,208.9 539.1,208.9 538.1,208.4 537.1,207.9 536.1,207.4 534.9,206.9 533.8,206.4 532.5,206 
		531.2,205.5 529.8,205.1 528.4,204.7 527,204.4 525.4,204.1 523.8,203.9 522,203.7 520.3,203.6 518.5,203.6 516.6,203.6 
		516.6,203.6 514.7,203.6 512.7,203.7 510.7,203.9 508.6,204.3 506.5,204.9 504.3,205.8 502.2,206.8 500.1,208.2 498,209.8 
		496.1,211.8 494.2,214.2 492.4,217 490.7,220.4 489.1,224.2 487.7,228.4 486.5,233.2 486.5,233.2 486,236 485.7,238.6 485.6,241.3 
		485.6,243.8 485.9,246.4 486.4,248.8 487.1,251.1 487.9,253.4 489,255.4 490.4,257.4 492,259.1 493.8,260.7 495.9,262.1 
		498.2,263.2 500.8,264.2 503.7,264.9 503.7,264.9 504.6,265.1 505.8,265.3 507.1,265.5 508.6,265.6 510.3,265.8 512.1,265.8 
		513.9,265.8 515.8,265.6 517.8,265.4 519.8,265 521.7,264.5 523.6,263.9 525.5,263.1 527.2,262.1 528.8,260.9 530.3,259.5 
		526.9,279.7 526.9,279.7 526.4,280.1 526,280.6 525.4,281.1 524.7,281.5 523.9,282.1 522.8,282.7 521.6,283.2 520.2,283.7 
		518.5,284.2 516.5,284.6 514.2,284.9 511.6,285.2 508.6,285.3 505.2,285.4 501.4,285.3 497.1,285.1 497.1,285.1 493.7,284.7 
		490.2,284 486.7,282.8 483.2,281.3 479.9,279.5 476.7,277.2 473.7,274.6 470.9,271.5 468.4,268.1 466.2,264.4 464.4,260.1 
		463.1,255.5 462.2,250.4 461.9,245 462,239.1 462.8,232.9 462.8,232.9 463.4,229.8 464.1,226.7 464.9,223.8 465.6,221 466.5,218.3 
		467.5,215.7 468.4,213.2 469.5,210.8 470.6,208.5 471.8,206.3 473.1,204.2 474.4,202.2 475.8,200.3 477.3,198.5 478.8,196.8 
		480.4,195.2 482.1,193.7 483.9,192.3 485.7,191 487.6,189.8 489.6,188.6 491.7,187.7 493.8,186.8 496,185.9 498.4,185.2 
		500.7,184.6 503.1,184 505.7,183.6 508.3,183.2 511,182.9 513.7,182.7 516.6,182.7 516.6,182.7 519,182.7 521.4,182.9 523.6,183.1 
		525.9,183.4 528,183.7 530.1,184.2 532,184.6 533.9,185 535.6,185.5 537.1,185.9 538.6,186.4 539.8,186.8 540.8,187.2 541.7,187.5 
		542.4,187.8 542.9,188 539.1,208.9 	"/>
	<polygon class="st2" points="725.5,285.5 704.5,285.5 706,277.1 706,276.3 704.8,277.8 703.5,279.2 702.2,280.4 700.9,281.5 
		699.5,282.4 698.2,283.3 696.8,284 695.4,284.6 693.9,285.2 692.5,285.6 691,285.9 689.5,286.2 688,286.4 686.6,286.5 685.1,286.6 
		683.5,286.6 679.6,286.3 676,285.5 672.6,284.2 669.6,282.4 666.9,280.3 664.5,277.7 662.3,274.9 660.5,271.7 659,268.3 
		657.8,264.7 657,261 656.4,257.2 656.1,253.3 656.2,249.4 656.6,245.5 657.3,241.6 658.4,237.2 659.8,232.9 661.4,229.1 
		663.2,225.4 665.2,222 667.5,219 669.8,216.3 672.3,213.8 675,211.6 677.8,209.7 680.7,208 683.5,206.7 686.6,205.7 689.6,205 
		692.6,204.5 695.7,204.4 697.9,204.5 700,204.7 702,205.1 703.8,205.6 705.6,206.2 707.1,206.9 708.6,207.7 710,208.6 711.2,209.5 
		712.3,210.4 713.3,211.4 714.2,212.4 715,213.4 715.6,214.4 716.2,215.3 716.7,216.2 716.7,216.2 722,186.4 742.6,186.4 
		725.5,285.5 	"/>
	<polyline class="st3" points="725.5,285.5 704.5,285.5 706,277.1 706,276.3 706,276.3 704.8,277.8 703.5,279.2 702.2,280.4 
		700.9,281.5 699.5,282.4 698.2,283.3 696.8,284 695.4,284.6 693.9,285.2 692.5,285.6 691,285.9 689.5,286.2 688,286.4 686.6,286.5 
		685.1,286.6 683.5,286.6 683.5,286.6 679.6,286.3 676,285.5 672.6,284.2 669.6,282.4 666.9,280.3 664.5,277.7 662.3,274.9 
		660.5,271.7 659,268.3 657.8,264.7 657,261 656.4,257.2 656.1,253.3 656.2,249.4 656.6,245.5 657.3,241.6 657.3,241.6 658.4,237.2 
		659.8,232.9 661.4,229.1 663.2,225.4 665.2,222 667.5,219 669.8,216.3 672.3,213.8 675,211.6 677.8,209.7 680.7,208 683.5,206.7 
		686.6,205.7 689.6,205 692.6,204.5 695.7,204.4 695.7,204.4 697.9,204.5 700,204.7 702,205.1 703.8,205.6 705.6,206.2 707.1,206.9 
		708.6,207.7 710,208.6 711.2,209.5 712.3,210.4 713.3,211.4 714.2,212.4 715,213.4 715.6,214.4 716.2,215.3 716.7,216.2 
		716.7,216.2 722,186.4 742.6,186.4 725.5,285.5 	"/>
	<polygon class="st0" points="691.2,267.2 693.3,267 695.3,266.6 697.1,266 698.8,265.2 700.4,264.3 701.9,263.1 703.4,261.9 
		704.7,260.5 705.8,259 706.9,257.3 707.8,255.6 708.7,253.8 709.4,251.9 710,249.9 710.6,247.8 710.9,245.8 711.3,243.7 
		711.6,241.5 711.6,239.4 711.5,237.3 711.3,235.4 710.9,233.5 710.4,231.6 709.8,229.9 709.1,228.4 708.2,227 707.2,225.7 
		706,224.7 704.7,223.8 703.4,223.2 701.9,222.8 700.4,222.6 698.3,222.8 696.4,223.1 694.7,223.7 692.9,224.5 691.4,225.4 
		689.9,226.7 688.6,227.9 687.3,229.4 686.2,231 685.1,232.8 684.1,234.6 683.3,236.6 682.6,238.6 682,240.7 681.3,242.8 680.9,245 
		680.5,248.4 680.7,252 681.2,255.7 682.2,259.3 683.7,262.4 685.7,264.9 688.2,266.6 691.2,267.2 	"/>
	<polygon class="st2" points="226.2,268.7 223.2,285.5 204.1,285.5 204.7,282.4 205,279.6 205.3,277.5 205.6,276.3 204.6,277.5 
		203.4,278.7 201.9,279.9 200.4,280.9 198.5,282 196.6,282.9 194.7,283.8 192.6,284.6 190.4,285.2 188.2,285.8 186,286.2 
		183.8,286.5 181.6,286.7 179.4,286.8 177.3,286.5 175.2,286.2 172.6,285.6 170.1,284.8 168,283.8 166.1,282.7 164.5,281.5 
		162.9,280.1 161.7,278.7 160.7,277.1 159.8,275.6 159,273.9 158.4,272.2 157.9,270.6 157.6,268.8 157.4,267.1 157.3,265.4 
		157.3,263.7 157.5,260.8 157.9,258 158.7,255.3 159.7,252.8 160.9,250.3 162.3,248.2 163.9,246 165.7,244.1 167.6,242.4 
		169.7,240.8 171.9,239.4 174.2,238.2 176.6,237.1 179.1,236.3 181.6,235.6 184.3,235.1 184.4,235.1 184.8,235.1 185.4,235 
		186.2,234.9 187.1,234.8 188.2,234.7 189.3,234.5 190.6,234.4 191.9,234.2 193.2,234.1 194.5,234 195.7,233.8 196.9,233.8 
		198.1,233.7 199.1,233.6 200,233.6 201.7,233.6 203.5,233.7 205.2,233.8 206.9,233.8 208.2,233.8 209.3,233.9 210,234 210.3,234 
		210.4,233.5 210.9,232.1 211.3,230.5 211.4,229.1 211.1,227.4 210.4,225.9 209.5,224.5 208.3,223.4 206.9,222.4 205.3,221.7 
		203.5,221.3 201.5,221.1 199.4,221 197.1,221 194.7,221 192.3,221 189.8,221.2 187.4,221.4 185,221.7 182.6,222 180.4,222.3 
		178.2,222.6 176.2,223 174.4,223.4 172.7,223.8 171.4,224.3 170.3,224.8 169.5,225.3 174.8,207 176.5,206.4 178.2,205.8 180,205.2 
		181.8,204.8 183.6,204.5 185.6,204.2 187.6,203.9 189.6,203.7 191.7,203.6 193.9,203.5 196.2,203.4 198.5,203.4 201,203.4 
		203.5,203.4 206.1,203.5 208.8,203.6 210.9,203.7 213.1,204.1 215.5,204.6 217.9,205.3 220.3,206.2 222.5,207.3 224.8,208.6 
		226.9,210 228.8,211.7 230.5,213.5 232,215.5 233.1,217.8 233.9,220.2 234.3,222.8 234.3,225.7 233.9,228.7 226.2,268.7 	"/>
	<polyline class="st3" points="226.2,268.7 223.2,285.5 204.1,285.5 204.1,285.5 204.7,282.4 205,279.6 205.3,277.5 205.6,276.3 
		205.6,276.3 204.6,277.5 203.4,278.7 201.9,279.9 200.4,280.9 198.5,282 196.6,282.9 194.7,283.8 192.6,284.6 190.4,285.2 
		188.2,285.8 186,286.2 183.8,286.5 181.6,286.7 179.4,286.8 177.3,286.5 175.2,286.2 175.2,286.2 172.6,285.6 170.1,284.8 
		168,283.8 166.1,282.7 164.5,281.5 162.9,280.1 161.7,278.7 160.7,277.1 159.8,275.6 159,273.9 158.4,272.2 157.9,270.6 
		157.6,268.8 157.4,267.1 157.3,265.4 157.3,263.7 157.3,263.7 157.5,260.8 157.9,258 158.7,255.3 159.7,252.8 160.9,250.3 
		162.3,248.2 163.9,246 165.7,244.1 167.6,242.4 169.7,240.8 171.9,239.4 174.2,238.2 176.6,237.1 179.1,236.3 181.6,235.6 
		184.3,235.1 184.3,235.1 184.4,235.1 184.8,235.1 185.4,235 186.2,234.9 187.1,234.8 188.2,234.7 189.3,234.5 190.6,234.4 
		191.9,234.2 193.2,234.1 194.5,234 195.7,233.8 196.9,233.8 198.1,233.7 199.1,233.6 200,233.6 200,233.6 201.7,233.6 203.5,233.7 
		205.2,233.8 206.9,233.8 208.2,233.8 209.3,233.9 210,234 210.3,234 210.3,234 210.4,233.5 210.9,232.1 211.3,230.5 211.4,229.1 
		211.4,229.1 211.1,227.4 210.4,225.9 209.5,224.5 208.3,223.4 206.9,222.4 205.3,221.7 203.5,221.3 201.5,221.1 201.5,221.1 
		199.4,221 197.1,221 194.7,221 192.3,221 189.8,221.2 187.4,221.4 185,221.7 182.6,222 180.4,222.3 178.2,222.6 176.2,223 
		174.4,223.4 172.7,223.8 171.4,224.3 170.3,224.8 169.5,225.3 174.8,207 174.8,207 176.5,206.4 178.2,205.8 180,205.2 181.8,204.8 
		183.6,204.5 185.6,204.2 187.6,203.9 189.6,203.7 191.7,203.6 193.9,203.5 196.2,203.4 198.5,203.4 201,203.4 203.5,203.4 
		206.1,203.5 208.8,203.6 208.8,203.6 210.9,203.7 213.1,204.1 215.5,204.6 217.9,205.3 220.3,206.2 222.5,207.3 224.8,208.6 
		226.9,210 228.8,211.7 230.5,213.5 232,215.5 233.1,217.8 233.9,220.2 234.3,222.8 234.3,225.7 233.9,228.7 226.2,268.7 	"/>
	<polygon class="st1" points="208,248.9 207.9,248.5 207.6,248.2 207.2,247.9 206.4,247.8 205.6,247.6 204.6,247.5 203.5,247.5 
		202.3,247.5 201.1,247.6 199.8,247.8 198.6,247.9 197.4,248.1 196.3,248.2 195.2,248.5 194.3,248.7 193.5,248.9 192.9,249.1 
		192.3,249.3 191.5,249.6 190.7,250 189.7,250.4 188.7,251 187.6,251.5 186.6,252.1 185.6,252.8 184.6,253.6 183.7,254.5 
		182.9,255.4 182.1,256.4 181.6,257.5 181.1,258.7 180.9,259.9 180.8,262.5 181.2,264.5 182,266 182.9,267.2 184.1,267.9 
		185.4,268.4 186.6,268.6 187.8,268.7 190.1,268.6 192.1,268.4 194.1,268.1 195.8,267.6 197.3,267.1 198.8,266.4 200,265.7 
		201.2,264.9 202.2,264.1 203.1,263.2 203.8,262.4 204.4,261.5 205,260.6 205.4,259.7 205.8,258.8 206,258 206.6,255.8 207.2,253.3 
		207.6,250.9 208,248.9 	"/>
	<polygon class="st2" points="66.9,285.5 46.3,285.5 63.5,186.1 99.3,186.1 102.8,245 127.5,186.1 164.9,186.1 147.4,285.5 
		126.8,285.5 139.8,211.2 138.9,211.2 108.1,285.5 84.9,285.5 84.7,282.4 84.2,274.1 83.5,262.4 82.8,248.9 82,235.4 81.3,223.5 
		80.8,214.8 80.6,211.2 80.4,211.2 80,211.2 79.5,211.2 79.5,211.2 66.9,285.5 	"/>
	<polyline class="st3" points="66.9,285.5 46.3,285.5 63.5,186.1 99.3,186.1 102.8,245 127.5,186.1 164.9,186.1 147.4,285.5 
		126.8,285.5 139.8,211.2 138.9,211.2 108.1,285.5 84.9,285.5 84.9,285.5 84.7,282.4 84.2,274.1 83.5,262.4 82.8,248.9 82,235.4 
		81.3,223.5 80.8,214.8 80.6,211.2 80.6,211.2 80.4,211.2 80,211.2 79.5,211.2 79.5,211.2 66.9,285.5 	"/>
	<polygon class="st2" points="602,268.7 598.9,285.5 579.9,285.5 580,282.4 580.1,279.6 580.1,277.6 580.3,276.7 579.3,277.8 
		578.2,279 576.8,280 575.3,281.1 573.7,282.1 571.9,283 570,283.9 568.1,284.6 566,285.2 563.9,285.9 561.8,286.2 559.7,286.5 
		557.5,286.7 555.4,286.8 553.3,286.5 551.3,286.2 548.5,285.6 546.1,284.8 544,283.8 542,282.7 540.4,281.5 538.9,280.1 
		537.7,278.7 536.7,277.1 535.8,275.6 535.1,273.9 534.5,272.2 534.1,270.6 533.8,268.8 533.6,267.1 533.4,265.4 533.4,263.7 
		533.6,260.8 534,258 534.7,255.3 535.7,252.8 536.8,250.3 538.3,248.2 539.8,246 541.6,244.1 543.5,242.4 545.6,240.8 547.8,239.4 
		550.1,238.2 552.5,237.1 555,236.3 557.5,235.6 560.1,235.1 560.2,235.1 560.6,235.1 561.1,235 561.9,234.9 562.9,234.8 
		563.9,234.7 565.1,234.5 566.3,234.4 567.6,234.2 568.9,234.1 570.2,234 571.5,233.8 572.7,233.8 573.8,233.7 574.8,233.6 
		575.7,233.6 577.5,233.6 579.3,233.7 581,233.8 582.7,233.8 584.1,233.8 585.3,233.9 586,234 586.3,234 586.5,233.5 586.7,232.1 
		586.9,230.5 587.1,229.1 586.8,227.4 586.2,225.9 585.2,224.5 584.1,223.4 582.7,222.4 581.1,221.7 579.4,221.3 577.6,221.1 
		575.5,221 573.2,221 570.9,221 568.5,221 566,221.2 563.5,221.4 561.1,221.7 558.8,222 556.5,222.3 554.3,222.6 552.3,223 
		550.5,223.4 548.8,223.8 547.5,224.3 546.4,224.8 545.6,225.3 550.9,207 552.6,206.4 554.3,205.8 556,205.2 557.9,204.8 
		559.8,204.5 561.6,204.2 563.6,203.9 565.7,203.7 567.8,203.6 570,203.5 572.2,203.4 574.5,203.4 576.9,203.4 579.3,203.4 
		581.9,203.5 584.4,203.6 586.6,203.7 588.8,204.1 591.2,204.6 593.6,205.3 595.9,206.2 598.3,207.3 600.6,208.6 602.7,210 
		604.6,211.7 606.3,213.5 607.8,215.5 609,217.8 609.8,220.2 610.3,222.8 610.3,225.7 609.9,228.7 602,268.7 	"/>
	<polygon class="st2" points="598.9,286 599.4,285.6 602.5,268.7 601.5,268.6 598.4,285.4 598.9,284.9 598.9,286 599.3,285.9 
		599.4,285.6 598.9,286 	"/>
	<polygon class="st2" points="579.4,285.5 579.9,286 598.9,286 598.9,284.9 579.9,284.9 580.3,285.5 579.4,285.5 579.4,286 
		579.9,286 579.4,285.5 	"/>
	<polygon class="st2" points="580.7,277 580,276.4 579.7,277.6 579.6,279.6 579.6,282.4 579.4,285.5 580.3,285.5 580.5,282.4 
		580.7,279.6 580.6,277.6 580.6,277 579.9,276.4 580.7,277 	"/>
	<polygon class="st2" points="551.2,286.7 551.2,286.7 553.3,287 555.4,287.2 557.5,287.1 559.7,287 561.9,286.7 564,286.3 
		566.1,285.7 568.2,285.1 570.1,284.3 572.1,283.4 573.9,282.5 575.5,281.5 577.1,280.4 578.5,279.3 579.7,278.1 580.7,277 
		579.9,276.4 578.9,277.5 577.8,278.6 576.5,279.6 575,280.7 573.5,281.6 571.6,282.5 569.8,283.4 567.9,284.2 566,284.8 
		563.8,285.4 561.7,285.8 559.7,286.1 557.5,286.2 555.4,286.3 553.3,286.1 551.4,285.8 551.4,285.8 551.2,286.7 	"/>
	<polygon class="st2" points="532.9,263.7 532.9,263.7 533,265.4 533.1,267.1 533.3,268.9 533.6,270.6 534,272.3 534.6,274 
		535.3,275.8 536.3,277.4 537.3,279 538.6,280.4 540.1,281.8 541.8,283.1 543.8,284.3 546,285.2 548.5,286 551.2,286.7 551.4,285.8 
		548.6,285.1 546.3,284.3 544.2,283.4 542.3,282.3 540.7,281.1 539.3,279.8 538.1,278.4 537,276.9 536.2,275.3 535.5,273.7 
		534.9,272.2 534.5,270.5 534.2,268.7 534,267.1 533.9,265.4 533.9,263.7 533.9,263.7 532.9,263.7 	"/>
	<polygon class="st2" points="560.1,234.7 560.1,234.7 557.4,235.1 554.8,235.8 552.3,236.6 549.9,237.7 547.6,238.9 545.3,240.4 
		543.2,242 541.3,243.8 539.5,245.7 537.9,247.8 536.4,250.1 535.2,252.6 534.2,255.2 533.6,257.9 533.1,260.8 532.9,263.7 
		533.9,263.7 534,260.8 534.5,258.1 535.1,255.5 536.1,252.9 537.3,250.6 538.6,248.5 540.2,246.3 541.9,244.4 543.9,242.8 
		545.9,241.2 548,239.8 550.4,238.6 552.6,237.6 555.1,236.7 557.6,236 560.1,235.6 560.1,235.6 560.1,234.7 	"/>
	<polygon class="st2" points="575.7,233.1 575.7,233.1 574.8,233.1 573.8,233.2 572.7,233.3 571.5,233.4 570.2,233.5 568.9,233.6 
		567.6,233.8 566.3,233.9 565.1,234.1 563.9,234.2 562.9,234.3 561.9,234.4 561.1,234.5 560.5,234.6 560.2,234.7 560.1,234.7 
		560.1,235.6 560.2,235.6 560.7,235.5 561.1,235.4 561.9,235.4 562.9,235.2 563.9,235.1 565.1,235 566.3,234.8 567.6,234.7 
		568.9,234.5 570.2,234.4 571.5,234.3 572.7,234.2 573.8,234.1 574.8,234.1 575.7,234.1 575.7,234.1 575.7,233.1 	"/>
	<polygon class="st2" points="585.9,233.9 586.3,233.5 586,233.5 585.3,233.5 584.1,233.4 582.7,233.2 581,233.2 579.3,233.2 
		577.5,233.1 575.7,233.1 575.7,234.1 577.5,234.1 579.3,234.1 581,234.3 582.7,234.3 584.1,234.3 585.3,234.4 586,234.4 
		586.3,234.4 586.8,234.1 586.3,234.4 586.7,234.5 586.8,234.1 585.9,233.9 	"/>
	<polygon class="st2" points="586.6,229.1 586.6,229.1 586.5,230.5 586.3,232 586,233.4 585.9,233.9 586.8,234.1 586.9,233.5 
		587.2,232.2 587.4,230.5 587.6,229.1 587.5,229.1 586.6,229.1 	"/>
	<polygon class="st2" points="577.6,221.6 577.6,221.7 579.4,221.7 581,222.2 582.5,222.9 583.8,223.8 584.8,224.8 585.7,226.1 
		586.3,227.5 586.6,229.1 587.5,229.1 587.2,227.3 586.6,225.7 585.6,224.2 584.4,223 582.9,222 581.3,221.3 579.5,220.8 
		577.6,220.6 577.6,220.7 577.6,221.6 	"/>
	<polygon class="st2" points="545.1,225.2 545.9,225.7 546.7,225.3 547.6,224.8 548.9,224.3 550.6,223.8 552.4,223.5 554.4,223.1 
		556.6,222.7 558.8,222.4 561.1,222.1 563.5,221.9 566,221.7 568.5,221.5 570.9,221.5 573.2,221.5 575.5,221.5 577.6,221.6 
		577.6,220.7 575.5,220.6 573.2,220.4 570.9,220.4 568.5,220.6 566,220.7 563.5,221 561.1,221.2 558.8,221.5 556.4,221.8 
		554.2,222.2 552.3,222.6 550.4,222.9 548.8,223.4 547.3,223.8 546.2,224.4 545.3,224.9 546.1,225.4 545.1,225.2 	"/>
	<polygon class="st2" points="550.7,206.6 550.4,207 545.1,225.2 546.1,225.4 551.4,207.1 551,207.5 550.7,206.6 550.5,206.7 
		550.4,207 550.7,206.6 	"/>
	<polygon class="st2" points="584.4,203.1 584.4,203.1 581.9,203 579.3,202.9 576.9,202.9 574.5,202.9 572.2,202.9 570,203 
		567.8,203.1 565.7,203.3 563.6,203.4 561.6,203.7 559.7,204 557.8,204.4 556,204.8 554.2,205.3 552.4,205.9 550.7,206.6 551,207.5 
		552.7,206.8 554.5,206.2 556.1,205.7 557.9,205.3 559.8,204.9 561.7,204.6 563.6,204.3 565.7,204.2 567.8,204 570,203.9 
		572.2,203.9 574.5,203.9 576.9,203.9 579.3,203.9 581.9,204 584.4,204 584.4,204 584.4,203.1 	"/>
	<polygon class="st2" points="610.4,228.8 610.4,228.8 610.8,225.7 610.8,222.8 610.3,220.1 609.4,217.6 608.2,215.3 606.7,213.2 
		604.9,211.3 603,209.6 600.8,208.2 598.5,206.8 596.1,205.8 593.7,204.8 591.2,204.2 588.9,203.6 586.6,203.3 584.4,203.1 
		584.4,204 586.6,204.2 588.8,204.5 591.1,205.1 593.4,205.8 595.8,206.7 598.1,207.7 600.3,208.9 602.4,210.4 604.3,212 
		605.9,213.8 607.5,215.7 608.5,217.9 609.3,220.3 609.9,222.8 609.9,225.7 609.5,228.6 609.5,228.6 610.4,228.8 	"/>
	<polygon class="st2" points="602.5,268.7 602.5,268.7 610.4,228.8 609.5,228.6 601.5,268.6 601.5,268.6 602.5,268.7 	"/>
	<polygon class="st0" points="583.7,248.9 583.5,248.5 583.2,248.1 582.7,247.8 581.9,247.6 581.1,247.5 580.1,247.5 579,247.5 
		577.8,247.5 576.6,247.7 575.4,247.8 574.2,248 573.1,248.2 571.9,248.4 571,248.5 570,248.8 569.2,248.9 568.7,249 568.1,249.2 
		567.3,249.4 566.5,249.7 565.5,250.2 564.6,250.6 563.5,251.2 562.6,251.9 561.6,252.5 560.6,253.4 559.8,254.2 558.9,255.2 
		558.2,256.3 557.7,257.4 557.3,258.6 557,259.9 557,262.5 557.3,264.5 557.9,266 558.8,267.2 560,267.9 561.3,268.4 562.6,268.6 
		563.8,268.7 566.1,268.6 568.2,268.4 570.2,268 571.9,267.5 573.6,266.9 575,266.2 576.4,265.4 577.6,264.5 578.7,263.7 
		579.6,262.7 580.4,261.8 581.1,260.8 581.6,259.9 582,259 582.3,258.1 582.5,257.2 582.8,255.1 583.2,252.9 583.5,250.8 
		583.7,248.9 	"/>
	<polygon class="st2" points="739.6,275.1 739.8,273.4 740.4,271.3 741.5,269.5 742.8,267.9 744.3,266.6 746.2,265.7 748.1,265.1 
		750.2,264.9 752.4,265.1 754.3,265.7 756.2,266.6 757.7,267.9 759,269.5 760.1,271.3 760.7,273.4 760.8,275.1 758.6,275.1 
		758.5,273.7 758,272.1 757.3,270.6 756.3,269.3 755.1,268.2 753.6,267.5 752,266.9 750.2,266.8 748.5,266.9 746.8,267.5 
		745.4,268.2 744.2,269.3 743.2,270.6 742.4,272.1 742,273.7 741.8,275.1 739.6,275.1 	"/>
	<polygon class="st2" points="746.5,275.1 746.5,270.6 750.6,270.6 751.5,270.6 752.4,270.8 753,271 753.5,271.3 753.9,271.8 
		754.2,272.2 754.3,272.8 754.4,273.3 754.3,274 754.2,274.5 754,275 753.8,275.1 750.6,275.1 750.9,275 751.5,275 751.9,274.8 
		752.3,274.7 752.6,274.4 752.7,274.2 752.9,273.8 752.9,273.3 752.8,272.9 752.7,272.6 752.4,272.5 752.2,272.3 751.8,272.2 
		751.5,272.2 751.1,272.2 750.6,272.2 748.4,272.2 748.4,275.1 746.5,275.1 	"/>
	<polygon class="st2" points="739.6,275.1 739.6,275.6 739.8,277.8 740.4,279.8 741.5,281.6 742.8,283.1 744.3,284.4 746.2,285.4 
		748.1,286 750.2,286.2 752.4,286 754.3,285.4 756.2,284.4 757.7,283.1 759,281.6 760.1,279.8 760.7,277.8 760.9,275.6 760.8,275.1 
		758.6,275.1 758.6,275.6 758.5,277.4 758,279 757.3,280.5 756.3,281.8 755.1,282.8 753.6,283.7 752,284.2 750.2,284.3 748.5,284.2 
		746.8,283.7 745.4,282.8 744.2,281.8 743.2,280.5 742.4,279 742,277.4 741.8,275.6 741.8,275.1 739.6,275.1 	"/>
	<polygon class="st2" points="746.5,275.1 746.5,279.7 748.4,279.7 748.4,275.9 750.2,275.9 752.5,279.7 754,279.7 751.8,275.9 
		752.3,275.9 752.8,275.8 753.3,275.6 753.6,275.3 753.8,275.1 750.6,275.1 750.2,275.2 748.4,275.2 748.4,275.1 746.5,275.1 	"/>
	<path class="st3" d="M739.6,275.6L739.6,275.6l0.2-2.2l0.6-2l1.1-1.8l1.3-1.6l1.6-1.3l1.8-0.9l2-0.6l2.1-0.2l0,0l2.1,0.2l2,0.6
		l1.8,0.9l1.6,1.3l1.3,1.6l1.1,1.8l0.6,2l0.2,2.2l0,0l-0.2,2.2l-0.6,2l-1.1,1.8l-1.3,1.5l-1.6,1.3l-1.8,1l-2,0.6l-2.1,0.2l0,0
		l-2.1-0.2l-2-0.6l-1.8-1l-1.6-1.3l-1.3-1.5l-1.1-1.8l-0.6-2L739.6,275.6 M748.4,279.7h-1.9v-9.2h4.2l0,0l0.9,0.1l0.8,0.2l0.6,0.2
		l0.5,0.3l0.4,0.5l0.3,0.5l0.2,0.5l0.1,0.5l0,0l-0.1,0.7l-0.2,0.5L754,275l-0.3,0.4l-0.4,0.3l-0.5,0.2l-0.5,0.2h-0.5l2.3,3.8h-1.5
		l-2.3-3.8h-1.9L748.4,279.7 M750.2,275.2L750.2,275.2l0.7-0.1l0.5-0.1l0.5-0.2l0.4-0.2l0.3-0.2l0.2-0.2l0.1-0.4v-0.5l0,0l-0.1-0.4
		l-0.2-0.3l-0.2-0.2l-0.2-0.2l-0.4-0.1l-0.4-0.1h-0.4h-0.5h-2.3v3L750.2,275.2 M750.2,284.3L750.2,284.3l1.7-0.1l1.7-0.5l1.4-0.8
		l1.2-1.1l1-1.3l0.8-1.4l0.5-1.7l0.2-1.8l0,0l-0.2-1.8l-0.5-1.7l-0.8-1.5l-1-1.3l-1.2-1.1l-1.4-0.8l-1.7-0.5l-1.7-0.2l0,0l-1.7,0.2
		l-1.7,0.5l-1.4,0.8l-1.2,1.1l-1,1.3l-0.8,1.5l-0.5,1.7l-0.1,1.8l0,0l0.1,1.8l0.5,1.7l0.8,1.4l1,1.3l1.2,1.1l1.4,0.8l1.7,0.5
		L750.2,284.3"/>
	<polygon class="st2" points="607.7,285.5 629,285.5 629,285.5 636.7,242.4 637,240.7 637.4,239.1 637.9,237.4 638.5,235.7 
		639.3,234.1 640.2,232.5 641.1,231 642.4,229.5 643.7,228.2 645.2,227 647,225.9 648.9,225 651.1,224.2 653.6,223.6 656.2,223.2 
		659.2,223 660.2,223 660.8,223 661.1,223 661.1,223 664.5,203.6 662.3,203.7 660.3,203.9 658.4,204.3 656.6,204.8 654.9,205.4 
		653.3,206.2 651.8,207 650.4,207.9 649,209 647.7,210.1 646.5,211.3 645.3,212.5 644.2,213.8 643,215.2 641.9,216.6 640.8,218.1 
		643.1,204.4 621.8,204.4 607.7,285.5 607.7,285.5 	"/>
	<polyline class="st3" points="607.7,285.5 629,285.5 629,285.5 636.7,242.4 636.7,242.4 637,240.7 637.4,239.1 637.9,237.4 
		638.5,235.7 639.3,234.1 640.2,232.5 641.1,231 642.4,229.5 643.7,228.2 645.2,227 647,225.9 648.9,225 651.1,224.2 653.6,223.6 
		656.2,223.2 659.2,223 659.2,223 660.2,223 660.8,223 661.1,223 661.1,223 664.5,203.6 664.5,203.6 662.3,203.7 660.3,203.9 
		658.4,204.3 656.6,204.8 654.9,205.4 653.3,206.2 651.8,207 650.4,207.9 649,209 647.7,210.1 646.5,211.3 645.3,212.5 644.2,213.8 
		643,215.2 641.9,216.6 640.8,218.1 643.1,204.4 621.8,204.4 607.7,285.5 607.7,285.5 	"/>
	<polygon class="st2" points="407.2,285.5 428.5,285.5 428.9,285.5 436.2,242.4 436.5,240.7 436.9,239.1 437.3,237.6 437.8,236 
		438.4,234.5 439.1,233.1 440.1,231.7 441.1,230.4 442.3,229.3 443.7,228.2 445.4,227.3 447.2,226.4 449.3,225.7 451.6,225.1 
		454.2,224.8 457.2,224.5 457.4,224.5 457.7,224.6 458.1,224.7 458.5,224.7 458.8,224.8 459.1,224.8 459.4,224.9 459.4,224.9 
		459.5,224.6 459.7,223.7 460,222.3 460.4,220.7 460.9,218.7 461.5,216.6 462.2,214.5 462.8,212.3 463.4,210.9 464.2,209.5 465,208 
		465.7,206.7 466.4,205.6 466.9,204.7 467.3,204.2 467.5,203.9 467.4,203.9 467.1,203.9 466.7,203.8 466.2,203.7 465.6,203.7 
		465,203.6 464.5,203.6 464,203.6 461.6,203.7 459.5,203.9 457.5,204.3 455.7,204.8 454,205.4 452.4,206.1 451,206.9 449.6,207.8 
		448.3,208.8 447.1,209.9 446,211.1 444.8,212.3 443.7,213.6 442.6,215.1 441.5,216.6 440.4,218.1 443.1,204.4 421.4,204.4 
		407.2,285.5 407.2,285.5 	"/>
	<polyline class="st3" points="407.2,285.5 428.5,285.5 428.9,285.5 436.2,242.4 436.2,242.4 436.5,240.7 436.9,239.1 437.3,237.6 
		437.8,236 438.4,234.5 439.1,233.1 440.1,231.7 441.1,230.4 442.3,229.3 443.7,228.2 445.4,227.3 447.2,226.4 449.3,225.7 
		451.6,225.1 454.2,224.8 457.2,224.5 457.2,224.5 457.4,224.5 457.7,224.6 458.1,224.7 458.5,224.7 458.8,224.8 459.1,224.8 
		459.4,224.9 459.4,224.9 459.4,224.9 459.5,224.6 459.7,223.7 460,222.3 460.4,220.7 460.9,218.7 461.5,216.6 462.2,214.5 
		462.8,212.3 462.8,212.3 463.4,210.9 464.2,209.5 465,208 465.7,206.7 466.4,205.6 466.9,204.7 467.3,204.2 467.5,203.9 
		467.5,203.9 467.4,203.9 467.1,203.9 466.7,203.8 466.2,203.7 465.6,203.7 465,203.6 464.5,203.6 464,203.6 464,203.6 461.6,203.7 
		459.5,203.9 457.5,204.3 455.7,204.8 454,205.4 452.4,206.1 451,206.9 449.6,207.8 448.3,208.8 447.1,209.9 446,211.1 444.8,212.3 
		443.7,213.6 442.6,215.1 441.5,216.6 440.4,218.1 443.1,204.4 421.4,204.4 407.2,285.5 407.2,285.5 	"/>
	<polygon class="st0" points="739.8,365.1 739.8,364.8 740.4,362.9 741.5,361.1 742.8,359.6 744.3,358.4 746.2,357.5 748.1,357 
		750.2,356.7 752.4,357 754.3,357.5 756.2,358.4 757.7,359.6 759,361.1 760.1,362.9 760.7,364.8 760.7,365.1 758.5,365.1 758,363.5 
		757.3,362.1 756.3,360.8 755.1,359.8 753.6,358.9 752,358.4 750.2,358.2 748.5,358.4 746.8,358.9 745.4,359.8 744.2,360.8 
		743.2,362.1 742.4,363.5 742,365.1 739.8,365.1 	"/>
	<polygon class="st0" points="746.5,365.1 746.5,362.5 750.6,362.5 751.5,362.5 752.4,362.6 753,362.8 753.5,363.1 753.9,363.5 
		754.2,363.9 754.3,364.4 754.4,365.1 752.9,365.1 752.9,364.8 752.8,364.4 752.7,364.1 752.4,363.9 752.2,363.8 751.8,363.7 
		751.5,363.6 751.1,363.6 750.6,363.6 748.4,363.6 748.4,365.1 746.5,365.1 	"/>
	<polygon class="st0" points="739.6,366.8 739.8,365.1 742,365.1 742,365.2 741.8,366.8 739.6,366.8 	"/>
	<polygon class="st0" points="746.5,366.8 746.5,365.1 748.4,365.1 748.4,366.6 750.2,366.6 750.9,366.5 751.5,366.4 751.9,366.3 
		752.3,366.1 752.6,365.9 752.7,365.7 752.9,365.3 752.9,365.1 754.4,365.1 754.4,365.1 754.3,365.7 754.2,366.1 754,366.5 
		753.6,366.8 746.5,366.8 	"/>
	<polygon class="st0" points="758.6,366.8 758.5,365.2 758.5,365.1 760.7,365.1 760.9,366.8 758.6,366.8 	"/>
	<polygon class="st0" points="739.6,366.8 739.6,367 739.8,369.2 740.4,371.3 741.5,373.1 742.8,374.7 744.3,376 746.2,376.9 
		748.1,377.5 750.2,377.7 752.4,377.5 754.3,376.9 756.2,376 757.7,374.7 759,373.1 760.1,371.3 760.7,369.2 760.9,367 760.9,366.8 
		758.6,366.8 758.6,367 758.5,368.8 758,370.5 757.3,371.9 756.3,373.2 755.1,374.3 753.6,375.1 752,375.6 750.2,375.8 748.5,375.6 
		746.8,375.1 745.4,374.3 744.2,373.2 743.2,371.9 742.4,370.5 742,368.8 741.8,367 741.8,366.8 739.6,366.8 	"/>
	<polygon class="st0" points="746.5,366.8 746.5,371.2 748.4,371.2 748.4,367.4 750.2,367.4 752.5,371.2 754,371.2 751.8,367.4 
		752.3,367.4 752.8,367.2 753.3,367.1 753.6,366.8 753.6,366.8 746.5,366.8 	"/>
</g>
</svg>
